<mxfile host="65bd71144e">
    <diagram id="EOrl3YXS21H57JclMkvH" name="Page-1">
        <mxGraphModel dx="1032" dy="612" grid="1" gridSize="10" guides="1" tooltips="1" connect="1" arrows="1" fold="1" page="1" pageScale="1" pageWidth="827" pageHeight="1169" math="0" shadow="0">
            <root>
                <mxCell id="0"/>
                <mxCell id="1" parent="0"/>
                <mxCell id="2" value="Javascript" style="whiteSpace=wrap;html=1;" parent="1" vertex="1">
                    <mxGeometry x="40" y="120" width="130" height="340" as="geometry"/>
                </mxCell>
                <mxCell id="3" value="WEB APIS" style="whiteSpace=wrap;html=1;" parent="1" vertex="1">
                    <mxGeometry x="440" y="120" width="260" height="160" as="geometry"/>
                </mxCell>
                <mxCell id="4" value="STACK" style="whiteSpace=wrap;html=1;" parent="1" vertex="1">
                    <mxGeometry x="280" y="390" width="110" height="180" as="geometry"/>
                </mxCell>
                <mxCell id="5" value="" style="shape=stencil(lVnbctw2DP2afcWAAG94dtL/8EyceqeOnXHcNvn7Qt2hLIK7x5O3XQlHAgng4IA66d2Px/vvDyfhH2+vL389/Hv+8vZ40k8nkfPz48Pr+c1/nfTzSe++vrw+/Pn68vfzl8v/7/eb5fbr28s/2xN+XnBMOW0g4V+XC6bU8v9X/rjYP52fD/ZCzLN9oiS37TOJTva9kgH7Ql1me6Wabtu34e2wb0bWb9snpjQ71ArlCgBCvc0Af0QBgEJtBtRMDQE61TIBipGCPZJE2mdApgI2yaPA8xuyUWUA8CDVGZApAYAy8eySNrIGAEppDpx6aiFAJZ5dcicLyFTtIxF2gKcqeENOZHMtpEoC3pALcQDskbkO6KTzGtoIzPViSCP3902iBnLV06DOS/YHGLBvVOcg7HRw1b4y1RbsGWRFdXc52CtYb63R3iMG1luNypzXMh5wnSwkJl0eC7pun+PzK3UF9n57jq+RIH96LDNPoAIqvzP1sEFOj8CjLpQDoIwr1wEa2Sthwu553N4BnRhUTS9kwSWDVdDb4KpDIStIi26jbHdAhk3KeJTJgVsaKAST2EU+iLR31ZAZ6mwDFm0lLlozZZCr1qgEQIN9ypZdUi8nwBYOKPOiM5MglyzmklNsBqnhAAv1KbCLJOaoR7xRwcjZ0tkq3leLisRZHDUqsxg5b7aKV60zyxesMBwQFl0wb1uPfWF7A0rXHmnD1yDIpU5prqDcRixvAXiJAxI9GyBk387ON10KaxDI3g6QJV0/cKmE1OCxDbcAPfRzrynAZB7pwDMOyLhG81LUhgGh5fqiUU/f6sHitma0rbsDRy2JtnUF7C3jpktzenvylQ9KNAA65JltW+fAZcPpbTH5vOIUp0azCIDk+tuAtlBlg0OA1QVQh366DliGvaw4vWXZVsYuMbVlzMhAcfclcFsbxWIjDAGKNajPs+EN0mEBuWAK456rEzSyuiQLnd3HAEVvkOHxUTAhAI/Gf5BkCQndPuaQo0pESrcuk0mGYsOltwaXBA5jru3jMOZkjIYZG4mwHzXgYaPGuNUxPd0afmLTpY7sOTJxgantw1uT+Hxkn+Ps0GA1+/AZCMbg/jiFlhBigaOGs7oEQIXjmDcaWQaBgk4lXLQsuh6xsNZ4suLVjyZu1SEeD4Qk6A2u1IJmUKgZPEphlzY5CVxyNtHZJY88qs33Q4LD+VNHqns5WakZnjN4XEM3bFgo+VQr8y61AlPDaz3PLvUEq7+Pu7t9GdrsenVGh7yzwFyNQ4D3ug76jpDOrdPbNepTThbB3mD1rwzP+OyGx6no4QVI8fCQygd7lBMuVlK0F7iAELBNAAEVyeMQ4mCPThk4tg8PgIKEWAZPw8eRHMcXn/Ab3B+2aI9GNt+fuQBcjSFu5EiNbo+ObX73Q8HH9v7j/avE1/PT0+WjxvF+/Irhly5fQPTzfw==);lineShape=1;" parent="1" vertex="1">
                    <mxGeometry x="165.0636507955062" y="146.20951466748113" width="253.0106478304615" height="45.58769208456306" as="geometry"/>
                </mxCell>
                <mxCell id="6" value="" style="shape=stencil(lVjLbhsxDPwaXwlJ1POcpv8RIE5j1I0DJ+nj78utoY1JWeP6tl4PVxQ55FDa8N3b88PrdhPc2/vx8H37a/f4/rzhL5sQdi/P2+PuXZ42fL/hu6fDcfvtePh4eTz9fn1YkMvTj8PP5Qu/T3aBclmMgvtzeuHIuX8vvp7g+93LGdwL3hu8T3N88FSdwQeErxQt3rU5njPlcMP3YyaXDb6EOT4lSlXhPXGd43O0/gfyIJ5F/vYGj/wplZr2hyn6Ob4mCk3hI4U4xzdHMSq8fIABvpDT8S+UCuCPW/m1BpQpI4+EESYDtefwskGiknRIhbSAQy1Q0JyQTRRAolqo6qQxQ1bUQElHlRsxcKlk8roshbgeRCk3ctogMRUQpeypsDKQNwkwNUUqetO5wlTH2re4UiNSBdyOEiW9QnVwBS4UNDWE7gWwlYcVhO8MDKQdZc2lxtSQQSLW9G6ZKuCSb7bgWqOGOvDQIRcDwCVfbB7EoAAu+TxEqXU6XjZIfYurgeQerZAoGpfESRQlMcg2rAFtWoig60HaQgAlKptmzaUmrRywVcIadOcTalScuNEgIpea7UtikECzX7QvDi6BFUTMXLKbTiBxYmDkVsIaUT2I/ps85J7KmUExeRBFAXlYBNmsUDu7ZlHKZoWGqdEGLrVrmTYKdCZ7MzKVoeQqCJPQ1YYJK4oYuGjDhHTXD5OPJALJ6FKjZoV8bYWsJUjIlFGUcp81z+iacVG3oeQa6mSl18t5yaHGdKuBzF9NF3VtUHdFgpredM2wV8osYrqxjB8OqaJ0dyPUBU5YMfXvrQZrEV6eHTx5HaWceue5bFComTG0QFWUudvMxRGronhcNDVk/HCASxITM4dy6jPXbOgLZrSv0CXJqzVg2MnqMDssnQdEaZED3cn8lcFVqKEz7R0soBoHoe4T1Ow8Y2S3wm4vacuGq7DchBfmvJd7M5+d98z8Jj0Hl4Kp/9QP1LPzakoGj6aM8TwsDmL5rBYfwMgwnufl+2jEsNcFCau5PR0mSDffY/EJR5cLjqo926LcOkvNCGXfWbFhWFvDuZZhDx3goSd65oz23cPT3bDVtQH/XyAdVnqbJneFM87CUaO98UbqKlwePi+/nnb7/enu7Px/e1kmr04XbXz/Fw==);lineShape=1;" parent="1" vertex="1">
                    <mxGeometry x="408.30350450887636" y="140.4563210252686" width="57.85335362745286" height="56.93795566722065" as="geometry"/>
                </mxCell>
                <mxCell id="7" value="" style="shape=stencil(lVnbUhsxDP2avGpkyzc90/Y/mCGUTClhgN7+vtpmvInl7KG8LeHYK+tydOTdyc3rw+3zfhf59e3l+G3/63D39rCTT7sYD08P+5fDmz3t5PNObu6PL/uvL8cfT3env59vF+Ty9P34c9nh92mdNip5WRX5z+mXQBL+/fDlhH88PF3iA9Xk8Clt41ul0By+NICPJOP+kRjsX21/j88Ib68PA14ogvOWQsHjFdhfAjEP+EQtb+NzJo0D3l4YAd72LwO+kso2PhWK4/6BKVawwBw0HiBEamCB1O7AdUGmCo4gQuxSolEt2wuiEusY40gRODVmCm5BIUELQj/iGmWGaR20O3FdkKBJYfKS+a2BwJkTZTyDRaYyWGCJ6TLP4oBMilTGMyTFJpkBo0lZqILUsAVhTL5cKSGTmPL4BqungExi4tGtJfWCus5flMbyKUaAAN9IR4OMQBrI1UZ5pNOaYNRaP96Kt0QB/FKpjuetShmEoJKM522BMrC/kI450YQS4kcqo39a7gS1gU+jf1qB/i++bFrrhH+dH0ndebV7bANfxgy1BifA/tyrfMXHniHX6ZR0bE+aeoZs4OuYD5oxv1MauVRrJ/wNfHD2a29wG3jXzgyP8kGoJI9H/V48QxgedZtIST0e9WOr1ml/FC+jmzrhwXl5yh/tEdzAxwmfgP3GbxM+YLzLnwb9yVM+G4PB/V3PMLygRklxsieglkFNPZ5BvGJns8v9kfjwctTwEcRLPL8ZHgmDNMWrQf6xenT2a+9oW/tP+SnwvLV5fAb+lK7+L+sR2BN9P1rqBWm5rubPcpQ7xWwkhEwHUBAA9hplOQDYn0lkchAsGJ4Chho2TwTaIGF9HJ9dACpMIKbm/JmxhvMN2BqYQMJ144M1SOT/OBFWgAQXe/ldNHgkaKJvADaRIn+KJywTKAmNP54QGxagUwM2gRWB/anPUhcCDhFQ9vEygYjsNwE0C1AQrzLNn+kdAZfHfKjrFPF/AtQEOhzoKY/+sQGgoQsJCqM9y8QOBFnz/skVCkT1BGozUgH4ZRx3Y5v2lNoaqlwF2JyHKsDmPB1TzibJhBakXrEXsyqKQSieVGQdRrfGZxc1m7fRNY+VsRtuLXEb0gXFT/TGTKgRmwFucgitl+r1Bdm37oBHH9Hpqi3CN6TkrwCwVkxrpZ/vhhhom7yOpmuu9uK4Xpo834WhC4aS+6XL+W4O3YVV9sNShKVZS5eqF3eXqJSDTyKG2qZNOcSUANXp1PsYtrJFageHR1JokfLZ49FdrXqxyzBBdcofhrO2qhd/DFvZosS8PQJq+DzanfGQhngSTwwvX5YXiMOjBF0OPBZkwAHTOUHRcLJoeXf3Cod5nW6nAtSiH77sfxdvD+cvC/eHx8fTh4nL//svEfbT6SuGfP4L);lineShape=1;" parent="1" vertex="1">
                    <mxGeometry x="327.02689938831713" y="224.75397166468792" width="100.0738525967804" height="218.03857665080318" as="geometry"/>
                </mxCell>
                <mxCell id="8" value="" style="shape=stencil(lVfZbttADPwavRLci7v7nKb/ESBObdSNA8fp8felaqxs0tYUeZPlmRXPIXdKD+/bp7fNFPn9dDx83/zaPZ+2U/oyxbh73W6Ou5M+TelxSg8vh+Pm2/Hw8fp8/v32NCPnpx+Hn/MJv8+8SiXPpMh/zi+iUEr/3nw94/e71yt8DBSSIeRMAgipUBdDkEANEHKhGAyhRgp5nVAydTaEFonLOkEyhW4JfYThLqEG70OPVAUQGokzqVGogNBJiiUEiiBKjanbPFSGYdWY5GoIpVGKgJCoW5M0MwJ8aIWSjVLKFBsgCInNQ8xUGRAaFet0KFRApnsgtl9I1IALipdoLaIMDNIyKDZG2h7A456oWnuYErL/pheYGNmjERWHD6BOe6Xu7Wno/E4szt+G/O1Ui4t/BPEPvPi3FB01UKTzB5pVF0rYoODEZWTkPr55hxt2WKhaPVVlQQnQnmGHr6gglvq94DOKT/QF3caL1QYQF58MVEXxLp6L3K82pLUnU0LxD6P/Lg3Z0PmRosUHLBBp9N+lAQrKrwpUcnhG9sjQgys8skfncfX2gMmk9enqTQOG69+dH0cDreG7xedRsKt4G/+CBfezeBlzd/G3jiGyljA/Y2RM/7WKYBtR3WBgi2nL2BbIgmuI/RQrnSIwSbeTbItINyJGs76NhWnp+kQFfaEQ2y/MQgMI84LjCB0KtXS/flxp/X0GU7StOYslsKnwiOLitYoXaLasBCtGtY7U3N9l2aup1LHz3J9nxe8faiSD2tCtzoY1qaCB/uehzgs+wP7km31oifIa3slvh7v4sm4s+DbaaQXv9iedNxxAQG/OlzGAVvBuh1V9QQtd9ONV9a6Dsk5jG7jCC8ivnhY8voLzy+jCK/sZtZnfLxVf0L3jk9e//+P14XLXfNnt9+er6vX//m6qr8732vT4Fw==);lineShape=1;" parent="1" vertex="1">
                    <mxGeometry x="310.60802337882456" y="416.8174252063545" width="40.81875172748255" height="37.6536402362633" as="geometry"/>
                </mxCell>
                <mxCell id="9" value="" style="shape=stencil(7VrLchw3DPyavaJIAuSQZ8f5D1dZjlRRJJcs5/H3AaPiaNnU9Mi3HHxb7aIpEI/GY+aiH77dfvp6c0nh2/PT4+83f919fr696C+XlO4ebm+e7p7900U/XvTDl8enm9+eHr8/fH75++unLtk//fH4Zz/h7xdcaxJCR6Xwz/5NK/998+sL4P7u4RpgYnEGVAl2DKhFtjIDMgVsm2RQKUioBBBkswlQszQ9BpQkOc2AIJWolE3CNgG2LJaOAeYK5BngdyAqaZUym7WYbBsBLHfI7jhipbRJAcCu5NsAHeftgCStEUAU0xkQpBGzxiZbmwDWpBArxYqhYVUSUSluonNoWJEcCaBImj1tHvDsP2RJoFKSQBIomsQZoE0i8UN0q8+O08zNGmUDQJISCCAMmwxAapKIlZroHBkpSyV+q6IzBaT9Tm9ntNjshBQkEZsWKbO8B0ogFy5Ieu72SHLHpM73jSqZ3NfpYran+5C52ENsOb+S5LcR9Ff6Z3Jflze0TyX2XOQ9tSs9P4K/3GIkaXTwyC6/Deo4kp/9lbh/3XoJ5Y1kjErJKM/qgQ7yv8oXFj8qUVGe3TcNa1/JswROYnmRZ9SOFHRyfhyl6Fp/xkAYzyf2iUu8uf0ZJY5+4Nq/RD4s8VZHhr5T3nsSej7yZ5ZC4t/ZDPyVJBH7BImgTxgMeSS/5Huh8mHhk0rtE+B8pZ1BWPg2npwP+dJGQB2F56xOodVLsboY7RbdlXPx2tnooNbFCuKsefXaWyG3RnF9W16xjdur/VFDowrykaV6xW4j0Jas5zrKK6MqHZXnVZ5Rea8tGeUJ9fRaivokfn5RkGdUkgy50KcP1nYb1qJIW4H1/Dga/XfqHyl1rvbxYkCSpdsferfRIR/6d4lndr53UhXPZ/GmGM+Jx4MuXCgbn3oC2tN4PAf0Lxv0uvzMtYFSs8snzBclrVtnNzw/cn2WeGalsfe2S/5yeZjATvQxyagPva/nC+YvtaeNyvNOfxn2YifxYKPyvzPeDEfadKYP9g5n+dIwf0/y8cfk4+gcX+XZZiQ2rI+J7jm8foE9nQDY+R6fs32M8lvc3bkvLUZCH5T3OqtTqLtc+/m2G+0GDItvpcmiuJaKfMu0bBIin+sSzl29z6NzRYPcKqN5OpKHXKl0jl3u24s7W5LhMqdXGyqPtaiMbPs5l15+zqX/y7mU7RpHabiaSxsjQ+TCTrZcHubeQOfYiJNX388y8sf4j/nEX7B1d76izfayd+PNueJitVE6ybjTd3pmxxc8PqbRPB2sSXHtmSkdVgwHN38k4VPHXLzLN7oLbziH94Rm6bg8uOnFl8VDfINwaQApbibVOYNFtA0C2QFGH6u4yXHZXvmAXXAAtkCXve4kBOjYBx2N8PDEzTLvgRruFMxDkfF6wMS0yhuPhFO8eSidtPVz7uRIH9yszxiy0aWRKpJ7rjS6tQ1u21u//Yi3m7mC7USpdG2Xl9lhU1rvXYE4O25rdBrYoujsh2qU4beK7XStdP6pG/b3Temzm2YY3s2brkQADatIfwJNPO2AYghgZcQBW0WAErM6AKYCB7CtTX/IvtxhY08+w7JDdUQjwdT/BejU6CasAxQBrBvst14AbFfY7bq8bMDmD/85GwLYg0P/GVjg1QxHAAjXK0sfIX7wjYlzgH94fUHjy939/cv7Hde/4wsd/tXLyyD68V8=);lineShape=1;" parent="1" vertex="1">
                    <mxGeometry x="119.66129318881508" y="327.0831320614691" width="184.09812823634547" height="143.83896578276517" as="geometry"/>
                </mxCell>
                <mxCell id="10" value="" style="whiteSpace=wrap;html=1;" parent="1" vertex="1">
                    <mxGeometry x="250" y="710" width="120" height="250" as="geometry"/>
                </mxCell>
                <mxCell id="11" value="" style="shape=stencil(rVjbUhsxDP2avGp8t/RM6X8wQ2gypYQJ0MvfV9vUIZLZA53p22ajs7akIx3Zm3z1tLt53G5SeHo+Hr5uf+xvn3eb/GmT0v5htz3un/Vpk683+erucNx+OR5eHm5Pvx9vFsvl6dvh+/KFnydcpBQXUAq/Ti9qI+5/3nw+2d/vHy7smZpY+0BS1u1jppoMoHTKAQCYsl2hZOpxHZB0BbaAQEEAQChmA8iNSl4H5EK5WECm0gBAKFULiFSB0+piawagmxSQBg2iC6tmJqV1QI0jJmdAo1YBoFCxzEiVInC6dirBAtQrENYWxvfOgARXaIm6WyFQBz60QmJXiEIZrSC+HGIjAVzqmaLdUqwUAFt7GzE5AzIltIIQWy7FSAy4xMnnIYaRyrcB1RcQw7wxU7Q76pTAhiSMmA/7RgHZZ//9MqrjbXvtWHb/2pLA/qVTT84edSThqYXBUpOZRIkSckBGg7usHJAxBYj1OHcKoBDk3E3ObTvinInv81pLFfsQ7ZZ6pY6ywFQc6zJeoVOzPnAfgV7lhS01bpQxIFiisjIJhbVSsczoccRtDRBsbVaBwiCF2HGv4mLQlmcBKj2QS5WSzYMqMKPEVWIXpffKszl2j/pey3Oxahtwu+BRXK/fL7g8XQ6UukBq1b5a3qmIVBQgmVKQ4HwRQ/BbKo0qbgBsY6piilREAdk60dMYatai2l3xxDGYraVNbNfWaiv/FTDpgmBhm4WHNfdouJ2UTVvMX235qHSqD4DcszhzGW3tg/KvbTIhwDRgaOI68GEeYbTroSjNQ1JnCmCFeQxbtAGU6Dzo9QLZOo+SSm/UuedhVTs3Kup5HO74lKEC68LaeDTO1ZHe9r2Gybeci4IHIDHRY0l2AIEKqgefWd8KWEFbaXKAMja5dnhzc4ZyiQE1VJyqzYPWA2KrjtdtqmmUafaKKwk2Pm2Lbj4PWLD0JGbzvAxbgKt6xnH2DD0OfrBSxUbFE7x+ik4M0D5GH1B0bNNo2IBqE4yA15MYdnwGC35qU5KiKwzdvxttdf/Q32zj2fJYccW+WX91xkN1rDOmu4LpsGH/65XN+/b68Ho/dLe/vz9dL13+7++T9NXpLipf/wY=);lineShape=1;" parent="1" vertex="1">
                    <mxGeometry x="255.8081115725564" y="906.5383184286452" width="113.6913220411376" height="6.742344298415674" as="geometry"/>
                </mxCell>
                <mxCell id="12" value="" style="shape=stencil(rVjZbttADPwavxJ7H89p+h8B4tRG3Thw3OvvO6q7ipZrTxSgb7bEWfEckrvxd6+7h5ftxpnX8+n4dftz/3jebfynjXP75932tD/j18bfb/zd0/G0/XI6fn9+vPx/eZgkp1/fjj+mE35dcFZ8nkDO/P73wIgrf598vsgf9s8L+SjR9/JOqrstX6WUXj6Jj7flcVyJPSC2J9cBabAgSc63Ac6IDz2gSCVfcEGy6wDwWkkEUMXYHhDEE6d6p70EQCJf8EmHAQBLbAhGbO8l5yUxgJdiNcCRQIcssWiAJXGISD2nAYaoFBGH2gMczaVYxPaRRuAiUSlBpdQDjGRDAEGCSm8kPPFSyi0RFsmXSaRTlaoAWQKxIftWjzMASnoCSM3EGWAlE7fmKqmPQ5FEsru4lmlNPtHEKFErhNwmQSgoXxVmCUT/attxs8Gtmq7Le50VhoasohKikjdE/1o0IcFhjFJBL4rAwNnsA3UoTdtcdgtQ++IH4STiImtmExsiOsmWfqL0DJaKRA4IfV4jrzxJI7i19IAKmmVWFzG9m6YjWGJkcX0hQElq9EDbNdLGgNelp+2CdsdCjfN6lcAHgakUNUfG2Q0rAQHJ9CGVUP+MhUejrW+Ms9KtgRfQEDfTHqxMDEsJbMy8LJYRxpDa4PjE61MVjweFkRhcqU/0a8/LTVFA8i2OK0kmw23MSwONldpmjpU8iUBSlQYiXvjhfyGG5gC7HIvd0H1gF2voY3t703Jl/0RFsQodGzSsYsQ3TgB1HuZWzhiwyrEZY5hiYBUd3YY5CVaxrj5OYsXSwI2zXsFQTZhynCbhN0be47yKEmKj2zgR50yn+nHmRmTYJDBO9QAUYsO4N0yxJ1U9biYAMLdOu4+yIUogNkzblYpDoLyBebYqlTxt01O/UV6aN7pbO6jqQACwpXXacpVbLV1asUer1Egzo99a1HuvpkRZBj5X50dJ5Pwh8yAfSFO0umGh/pg+RjNMcmJIkE2rrMXc4wiFmfZ2lufrrWnNb9FwHanlsUEbuoUZfcfgwzv2GjWFZXrFYBoZLi89qH9CX2RIWXYxBOvUEuOpf+yVpaeyivngxdb78vjxdov2tD8cLpdwy/f61g2PLjd2/v4P);lineShape=1;" parent="1" vertex="1">
                    <mxGeometry x="257.07846310890886" y="866.6030197883497" width="116.86982052249186" height="5.725311131308445" as="geometry"/>
                </mxCell>
                <mxCell id="13" value="" style="shape=stencil(rVhbbhsxDDyNfwlJ1PM7be8RIE5jNI0DJ33dvlQNbVakd+IA/VuvOSs+h6R2fPPycPu83wX38no6ftv/Oty9Puz40y6Ew9PD/nR4lacdf97xzf3xtP96Ov54ujv/fr7tkv3p+/Fn/8LvM85TTR0U3J/zi5CJw783X87yj4enlXymGGZ5ppS25Ru5Wd43Snlb3ntKCiAKIUAkV2ZApFgBIFOOM4ApNABoxOqEQBn4KASjkrwBJ4RIxc8AcQMCFEoGEN02gN3wyRoATmCmWDQgoxMyJQOoIHDchhNXgAZUioFi0oCCAGnEdW0DCFys5KyXACA5KlkDPPBSYsqsAQ5ka8oXvBQKAEh9GRtQAeVgKk6M9gCQiE0cGBidy0iEBeCoAkAJuuLEKAbySeeenAjCVgq12UcZ+rR6XdCRGOhTWceA8feF4mZKklRH32/kFYVRAfJN/lYRIwdSohUKM704ciBerY6kf9Mf1ZnIt1leEiKgA5rOUbGgRQhQJwg/ZeAi7xYTByKFwcpbR9TZSbkOVt4CqCjXJc+33JTnsLVAFVldtEryiYoSI1NTgIaNzuRmG5qwAeCvZji4JzsKtfTC+YTCkI4EoNpCqpBSLSD6kS1XqhSWZnel0TJiZNCprFsjLiATNwdHGJsY0qY+lHmFPCIMk9q+jCnryuJhmXhADC7UZyzEuNwUBWQmRk4yJFPq4P0raawuZl3JkxIYqJIh4pUf/hfCNIduF4id7T4C+Fh7Ey1R/dj+KQmPGpxt0FKCGZxgJ4DG8AQ7YggXe8AyF2YYN0bqK6ckcTRqinYOq5UKAphJTwBozbCzpABQWdtptasE3GrnYQE0wHx24q4Vkred6bvRIHB2axAAanF2LxFAADRgNx8BOAQwu5UAPIiD3d4EgJqo3Q+7l0Ac7AbaUwMBzI7bVQI3B32LNiohL/U9XQVOmhACSLZWDQjArT6SV5EWXgI13RdUpwHo+kMqnrVG+Domm1xFW3ow1F3wWEw5a3mU2n4w1iK/zE4X5aWaFQ07OBJLmqoROg4S3JD38/eF+B3wp7TK2f8ZD9BmKMluRHBLftYn+Xf8E9TiyXADcJoohDrQnYobnX41hqH88YMJl0lYGikqgA9eL74vLw9vd5n3h8fH81Xo+n999ymvzvem/Pkv);lineShape=1;" parent="1" vertex="1">
                    <mxGeometry x="261.4395567171008" y="830.4541045370552" width="103.8424274167188" height="5.800912629991217" as="geometry"/>
                </mxCell>
                <mxCell id="14" value="" style="shape=stencil(lVbLctswDPwaXTEkID5wTtP/yEycWlPXzjhO2/x9oKpUDFrZTm8SiSWeu+Qgdy/7h+fdwOHlcj593/2aHi/7Qb4MzNNxvztPF/sa5H6Qu6fTefftfHo9Pi7/zw+z5fz14/RzPuH3guNKQWYUh7e/K5TCn4Wvi/1hOl7Zj5lidPZxpKKfA0qg0TuIpR2xDSgk3Htg4KGOJF1IiTR/DtBAuficI+kIAImKD0kiZZCDVtLkAKPAkGIIFIJDpEIZZG0uSnWAEkkKTGL0HqpQwmVi3zllUtQIoeobYUFmEFLJVH1IV3XYRGRtjVpd2BkJAKTvRFVKAJCUxuzrWqGHlEl9mXKiCspkgOxzSEwBTFOyKvoyia1UkDRT7khdiBGgtu21EQpDKiNpBzAZABSqluINqxV4qLUnqYWElElNJbyHWdsQqyvFrqza6rYNsOHrOCoUEIO0175sw8IAkKn4aS3aVrYBTNEn/cHa7bLmVpMVYKOBGmeAdAMAHuRGXVUoguGL0l8pxriIcmiTttqbkCH+tCZddwG0jXsyGAErkLHQZHQVe4XSfSP1NncKz+/0wkrMwJ5p9PZ2vUWQb2rX68o0gfbaPxlsakG77LQ+HmJ0F9a23ezxncDSE9/swbz975Pn3/b28fG+epoOh+V5dr3fv8dsaXnLyf07);lineShape=1;" parent="1" vertex="1">
                    <mxGeometry x="252.40902383121772" y="788.9324544023484" width="10.082691113387114" height="5.112145776554598" as="geometry"/>
                </mxCell>
                <mxCell id="15" value="" style="shape=stencil(lVjbUlsxDPyavGp8t/xM6X8wQyiZUsIAvf195WZ8iORzNuEtHLS2Ja21knfx5u3x7mW/C+7t/fX4ff/7cP/+uItfdiEcnh/3r4d3+bWLt7t483B83X97Pf58vj/9/XLXLfuvH8dffYU/J5ynFjoouL+nD4Fq+//h68n86fB8Zp6IszEvwLxSYGPu0rZ5o+KUuafI2+ZeDu+VvSP2wD5RdMY+OWBfqCZj74C3vlGM1h6s36PBxt5HYC/Rb8Y+IvtKhU08PQh/dDb+gRKIf4xUNHkSuQrsC5Wq7AuMf2zE+jwNxicFapqdPsAEpGITIBSB9G+UNON8HRdoFZCnI0nOCuBolpAUDQiDhauAIhwzAPEhA4BkTbM05BHndUAlr52WvAVwpOomH8ooBOuAtSM1BCgUkwV4QL3KxMFGKZRtAEfybPOAyMqVnImSG9dvvdi5cRkXLrVBx3VAsFES8hWQ6caUpzxU4HRrFLQPcsUTuHECKLoipYh9aNT0kXKCCtIBOg9CR1RkBFD1jeu5xzsYVWCmhlSKbVlthTwKax3rLQA5JIpSHWQ+AyR0pDL+vQAyPpJceQ0Q/iZQlwSQNPnkDjaUhzxqxJK4NHK/BTB5yAvhtwBFszV5eKd7mrQPMYziuQUwAtTrEnK6UjblPl66ojHYHZCmCxFMmRHVZgwwRxJZzRdunMkDLmTeLW3OkupF9ra2MG1kFbqC4trpry8EC4FRItg60RJ5INQC8LqSfUR6K9VJZ+4sDltsMu2PrPF5ADrTpBAiMg3tMGkQL5G+UuXkC0rErKMstxBwY1ZqFqVG0j71ArJnRDtMbSsHyiBKcz8jAA/y0CVKk4k9lBTpyfIEQKKVJ1kUQAVRkr4yVgtwoG5I8WXNJXZQUqQ3DkYhli/rALnC2ocq8yLqvsPoXs7KBhw4mlUIyT0aQGVCyQbgYV8p/VHWXCptNF1bM5bZoTAcOfoQNwGQD/OUKHSMaIdpDBUAUoh5zhVARYP3NEgLoIBqPE/q3Qe0w/QUUAqufHbUFXuku9NLRsmjOF/3UCL2Dnls32F6twTtTUkSe7y+M+t7ioCnIvk6Y7nCkucsJbKHNdXZmTIlqCNTixHryOCV9u7C+e2MG0aHfJ2/wvEA1zfx9A6ef84X1LSJDhFOVZ989btoLj8+HhgfDk9Pp/fJ8//bB0n5dHrMjLf/AA==);lineShape=1;" parent="1" vertex="1">
                    <mxGeometry x="258.6352695123604" y="788.6905270546076" width="109.14859786275235" height="6.802124894078588" as="geometry"/>
                </mxCell>
                <mxCell id="16" value="" style="shape=stencil(lVfJctswDP0aXTEEQRLkOU3/IzNxak9dO+M4Xf6+UD1SRch6mdy04BHbw8JBHt72T6+7IYa36+X8fffr8HzdD/JliPFw2u8uh6s9DfI4yMPL+bL7djm/n55v769Po+T49OP8czzh9w0XSeoIiuHP7QMHCunfl683+ePhtJBvxLmTz1TztnhkqtLJB8ptW16UtDn5ELblc6RYOvlEsQL5RoU7+UpFtuVLoZz6+CSqwCCNXkEU4ggASqmPqERS4EJliqF3OUIfavIxsqgxSFotVPskFKYMfKiNpAdooASi1ObzZkClAHxoQqnnaRWqwKSWSPqwtkYVEZu90wZogKrmdFoBYB7UR6lVyKWaJxdngMLqsUy3nq2tQPIZoDpAmgi/ZVLu69kygxJnXPImMSnSUKk5DYEqw8RF9QBB1JDJgCUAUaNQWGmoCgBGZvZOQ/JZAakPKypRDnNfXGSugLYx0t/FtVAEKkZyOrpac0ZFratEzEfcB2RiZ1LDPlhn7AtiEYf7iLCyqUE2Gf1C8gDGBF97DSsi+xFqifigf2vf+yxwAdDPNERHP8H9u0zdegbYhMBF6jUwNMnykFYllFDDt9/lMwCbB15DhBNCm+e3xS0Bp21Epd5pOwKZpLY89IlTnprbfYDNtB5QBObBxqwD5EQM6qHo1Brn5cG4BEquRGq902IjBRRQ1onM8wKksOKS+n2GC2nZBoitbH2mOcKd1XY8N6ltyY0gSty80ywwrPbbdWNWYtD62BYg9oCGGpnfi7mSgCDZadnLo8FeJv8W8qgY0jQxF/IBXQRI1fubACt4lTIrJnC+XSvc+Rm2PBsbfXuxvV5AHazG7cgIkOCwuldFOBV4Om1B0Qby+9l728fy9vD/kvhyOB5vd8zlf3+ptE+3C6k8/gU=);lineShape=1;" parent="1" vertex="1">
                    <mxGeometry x="489.7963905763088" y="709.9251513346621" width="28.44210433132139" height="44.566664365793486" as="geometry"/>
                </mxCell>
                <mxCell id="17" value="" style="shape=stencil(rVbbbtswDP0avxKSKErUc9f9R4Gmi9EsKdKsl78fPUNeyNgsBuzNsXlC8pDnSAPeve4fXnZDCq+X8+l59z4+XvYDfhtSGo/73Xm8yNOA9wPePZ3Oux/n06/j4/z75WGKnJ5+nt6mf/iYcQSEEyiFz/lFISjhz5vvc/xhPF7FpwKZFCBXKLQNQIagAVigxm0ANYhZASIDtm0AE+SiAAFqduIlQTLxwWm5JaiaowjoNNAIWtQUASUnXtrT9TRAr57W+VvqoU7ZFqBpRqWD7MxMKmpNAyqQByg2AyZgj6MMQfcsW1GqAwhAJgP7Uy7AZAHs0MoImG1JjA4g9LVcANh3fRVQGdINrewBKiS2g6vsArLRjojDoVVKqjpDA3IScIRo5N/FsR6fbcuyeV68EKLjQ1+U9bWIQFb7nhvJ3jWzd5C8eDE3HV97wi2pYdX9YnebVUAMi/ksiNYXcStF1nY0mbgzM+nB+BfKFB1DFQMLeilQMnjijF2KV1pL/xNAFZqecwldG+vHDtlBizY8FxahGJYm3pwM8cYvpsk4nheD1drV8NfVACnZDOSoh7rBLfHsqge7VpZ4f87RcipHo3dSiRa1mJkhO/UIG5pRsY/oqPNGOrW5Z0LoOlniqfvlRr9V81PFbpx+0SqzsFv/v16+vo6Xh783vafxcJgvitff7c1QXs23Srz/DQ==);lineShape=1;" parent="1" vertex="1">
                    <mxGeometry x="499.6399082843309" y="723.3933069567006" width="19.42521156183102" height="11.343782610028029" as="geometry"/>
                </mxCell>
                <mxCell id="18" value="" style="shape=stencil(lZZNctswDIVPoy0GJEGCXKfpPTITp9bUtTOO+3f7QlXliLD1OtkpDD6TAN4DOaSHt/3T626I/HY5n77ufo7Pl/2QPg0xjsf97jxe7GtIj0N6eDmdd1/Op+/H5/nv16cpcvr6dvox/cKvmQuFAk9U5N/zSqQkfxc+z/GH8biKT5mCdPGhkeZtQJS4dEBiaroN5Eqx30ECad0GSqPQ75ATMTiSNhLtgCIU2zZQDUgdoGVZuQu0Rrk/UotL3e4CgZm470OTpXCbW4QeyNRAmVr1nWtKBQGFuM/a9uQAgEQSPVAZAHxTpkYNNUJJ1QMZVKlmSu5IlTJoRLUcmq8SIyCSFN+HCLRhQHJlTVh9iYIDAlRfFdL+SCbgioAbj9ZKBXjUfk+bBxgAJv9yswODpK2IST2gyHIm5uSTbhEaKEZfViSNSZuu01fBbwFerZYVGEymzX+GXIkvIKAs/lrJu6AjyY34GhVkUatJX6XVqLqvjat0VlsoEpPNmeqTaMhyNhmjL1MGk8wsp+wbUdHY+CigQq2fxjUsK/cvLRsSuQOU4djIBrhbzgQM+iBCpd9B7AYAfUhpucivN7WSAPXZUyH2ScdCGZg6UHWzlSroM3v7VNhl9mPSvAPD3YWbSUHDmKQPl6UfG6nGPtUIh1H0wytAy8gyRpZwhuos3vQMz1798wgbPjAV8fFIBXEp9Ht8BsoPQlldcRI6zweftP+Pt4/39/PLeDjMz+/1//1725bmt3p6/AM=);lineShape=1;" parent="1" vertex="1">
                    <mxGeometry x="546.3823945507875" y="719.0034793054215" width="20.577733596702956" height="30.390919593509807" as="geometry"/>
                </mxCell>
                <mxCell id="19" value="" style="shape=stencil(rVddb9swDPw1eSUkUaKk5677HwWaLsGypEjTffz70TPkhkx82IC92bJOEnnHo7zhh7fd0+t2k8Lb5Xz6uv2xf77sNvxpk9L+uNue9xd92vDjhh9eTuftl/Pp/fg8v78+TTOnp2+n79MKP2dcDZRlQqXwax7phbj+Gfk8Aw774xVAMpVkAK1QDuuAUoktoBaqaR2QC4VoAJIo8zqAGyULKLoE2CHp524AOVJr64DIIycDwJG6gBioZDNfRwIIIVAIZn4USoCF1KiyAQRilKJMktz8AEjLN7JYBtY4ExtwJAEJzZ3EUsZUIhDRku6FYqogP0UVY8+jGgGK0PU9AYEEJahStRKKiQScKDPFYgF5yPY+ZZWK1VxU2QIOVJKOYwVEIArNYc/+SKiUldQYfdAdBB3rjSwCBuiRLA9tBHV/voyULF5BEeQoNoo2R0ytwIibY23k7P58oebrRhDJKhpfx8i51OqKXx/pOuex3Mf5E5J1o2zjTdRAvFo3zhgzdVD3U13asqm4eSw2srQnakDS6ivBCS5B49UENUuAej1yFu5UnFPkwfl/AsjoRQtgcfs1a3HNYKqCDrKaqdoddM8OaBAtfAvQPQXsINr0XUvGhVB53AkWQBtN+i6gFV/5NUFA5+EMi7UkeNPpSpxNa1cAyFIMN21cN62gHHQLcYAC+35vxFbfXWDb0c+OiF6pAyL0xM6RdE8ICL7VTlEBT2ri244COqKa/Q3yKtP31aQuEW7OBHy+CpV2EzXIa2XfGKa8giBqHLZyxRwymn++mf8FQB8+fgRe9ofD/B9x/d3/OOjQ/NPBj78B);lineShape=1;" parent="1" vertex="1">
                    <mxGeometry x="549.9944815590059" y="807.9127186994606" width="14.267946616446352" height="34.51346975321826" as="geometry"/>
                </mxCell>
                <mxCell id="20" value="" style="shape=stencil(lVbLbttADPwaXQe75D7PafofAeLURl07cJw+/r4UhHVMVmKRmyzNmEtyZsmJH972T6+7icLb9XL+vvt1eL7uJ/4yER1O+93lcJWniR8nfng5X3bfLuf30/Py+/VpRs5PP84/53/4vfAqKs0kCn+WF5nHm68L/ng43eE5ILMipITUtgmpIukIzGhOhJLQqiIQIdVtQitIQREiuhOgdaSk8AEhbOM7IVeDz8XBZ6SiMx41W8dXtKjwDcU7Twc3nW8G5W1CDLcE70panZJKiKIJ0nd2utwbSMuCK8gjFASjIzmSV1UG6a6lAnLa3AOiiVDBni4qQtaEjJ4cQgIHm4N3pEaIXVepuFJqYSj51rjuakkIRVdJzNC6Q4hgLe4ofvYiMIKOUNE9fB7m/XBD8NzcrJvDOOF6myOydXP03JOQdZelZ06BxJ1Ru7OgRtcJXbs/Erpv564DSAausDuayaC6PZYjVSO7PJLaMqeJkOIw01ZRSetUrON57dOEIrrXsihlCHGVkEX3mlDF307SMpaM19ptdK1fq2Idrbz52vTKap1zdzGvJz0u6bsAXs4JxeCLe80TmkmAR0rrGVtrilm9CzLYQdv80f/PmKrN9aY4XXes0qjABr7qwVlkSDn4aK1cyFUE20Uh3y6zdY3aXSrnUbFV/GeXtf/j5eFjM3w5HI/LYnn/3W6S8mrZQvnxLw==);lineShape=1;" parent="1" vertex="1">
                    <mxGeometry x="549.0992682981514" y="815.9570091938713" width="20.055190851136558" height="8.20012235362583" as="geometry"/>
                </mxCell>
                <mxCell id="21" value="" style="shape=stencil(7VhJUhtBEHyNrhW9L2eM/0EEwiiMESGEl987x4oepmqkVHDyhZsYOrtryayq7k28eX28e9lugns9Hvbft79298fHTfyyCWH3/Lg97I74tYm3m3jzsD9svx32b8/3p79f7qaV068f+5/TDr9PuCCuTKDg/pw+pCw9/Pvy9bT+afe8WO+9ZKcAMYnPlwHBSa8KEJIUTwBFijbJN8n9MiAGqUkDgqRGAE16V4AilViU0gjJ7IJ4sn924rxajw+OrK+S9foolThcvJSoHc5SEgFE8TpCoV0DZB0h0CIxAHikT8gIMqEFfDYxrdiCOJ3hg6ZFiyMM57PWJeso9SyBnJCapXavY4vzgCqhaUAXT8QzaStZQC+UeTnrTDvOpRQlOHtEIJlLfliw8LoyryFob+OaSaoB8MakII2EKXbLvtalckDSJrUyvlw8YUUmxj74YPhdr2TOSdMm1SqenYCo6zpZIcJKBWF8qI6ekGdyzmWvSiI+lCxRs68kiYQa1UvTUUKpciQPtYnTCkJdaMQHpCmbOoPCREzqaQUItJv0IkEnDoF2REDvcpkBaTSk84C5Mi6cZnUGCjYnIKyehHVRJGZEHiK8eIThRh+pueiEtgn1u5AqMIXJCAKZI6JGIrzmxqQg5kOybbReiSvKkJFc4T74wbUZkGjp606iKRvYgoi6rVNd6WwCQDGSQ1skJ8Akp4sr6kJlmfar1l7oLICwRiPqRKtAj9ININAWhIZjRsQcuOTQqfPKJK5R04LgdOYCMtMGwtoYNbqdi5G4ygFNR2miBktct06DfFQPzY5YoHdhTpeVpiEgZlIWZxR3RaIfBbS8kminEm2QqK58zdMWhJgEM53wQoY0NTNsdNqC1vM9FMLygB5YdaYnwrMbzdnZmCTuczb+nI3/42yMxJnpBOMHy3QdfXxRjT0bpr1t1LjEJya5aJtcLHSYRodq2qTgJbAoVTv/BMSNkc+Pxr94aYnkhAhu6rAGkIW95XSJmnwx0TxMDxkmSp0+bfg80jQ/PHRa+optWdNbB3t3GIJfXGkcIUYaOVqsZyECU6tdz0pMGBeqhf3s7Qrjo3m6ClQ6oIy5CDhKU3RDc/tpg+gX1q+HQ3ZvWF1MIKRC7Tcle1Iqib+zrRP8CYQ/3uYLsmP7f/S99Pp6/Hh/nH3YPT2d3naX/7ePufh0egiOt38B);lineShape=1;" parent="1" vertex="1">
                    <mxGeometry x="591.3771151361027" y="813.3188895842152" width="48.51192198779813" height="20.184783505859514" as="geometry"/>
                </mxCell>
                <mxCell id="22" value="" style="shape=stencil(lVfLctswDPwaXTEgwec5Tf8jM3FqTV0747ht8veF6lI2KGnb3mSaSwKLxZIc5OFt//S6Gzy/Xc6nr7uf4/NlP8inwfvxuN+dx4t+DfI4yMPL6bz7cj59Pz5ff78+TTOnr2+nH9MK71ecC5TchPL88WeEavw98Pk6/zAe7+ZLpMp2fqUs24DoaPrvDiACAYnJFQMIjpIHgErBAiKT521ALuTFAgpFtw0oSlIwgBRgDtWTs0lnTRrQWjPlagDFUU4gpETVhlQrJRCS5uCSBRRKgKXiiS1LGiSDOhRuKc6ASIxyYArZAnzLah2w0FJlKmgHXc8CSsUhRRKrpaKVQdIoJJbWqTIZVNpRDD2gVAAIFBchIbVqmboG0iAzoFWVw7GnNYAcHDOxdQGtXARi0i1qJ6a5p9YBpRV2BiQMUBZt1rqEIJoCeet8GiTKWivnbA53PKyLI1NN/RYFCTwuek5rg+TnKXWlU3EANWkLcddzEYpjatJuB2l7bgH6ys2S38rBdy1UoeGrlYXOLAs5XAextOqIQ2Li/kiZmhQBpD9GdQePTghp5vuPAKWVFyEJOuUSeQvQcy+CwmV1VyuNjG0gRSo2aT0WPWApqjatHUe9TgB5B43YhhSUJSDvwL0dSyUBSfvQvLQBfGr2ue597Xo0q5scyGDRDGoJIH69+1hlJ3jPWNhwpAAkwY27mc1mBhupsj2pPBUQjO/91MErjzTbadO5Gfi6dihKNx0JIfcNjJ269jcRbka8zoxrPN/mCxKNNLu5cQPX/89b+d/n68ftCfAyHg7XF8T9//2TQYeuzw15/AU=);lineShape=1;" parent="1" vertex="1">
                    <mxGeometry x="613.6342482612085" y="901.5422240462321" width="23.673699611294523" height="35.28434259513051" as="geometry"/>
                </mxCell>
                <mxCell id="23" value="" style="shape=stencil(lVjbchoxDP2afdXYluXLc5r+R2ZCClMKGUJ6+ftqy9hdC/YwvC2Ljm1J50jyTvz0sX1530zBfZxPx++bX7vX83biL1MIu8N2c9qd9Wni54mf3o6nzbfT8fPwevn9/jJbzk8/jj/nFX5fcIHYz6Dg/lxecCbhf2++Xuz3u8PCvpCXwV7f5LRu75lcGQGBpAJAoegGgM/kwzogRAqjC16diusAdhR4AGSqwAVObblmH4nBgaKnOtp7EmSfqIwOOHJu3V6iPb/GGPgrtR13EdFU1gHJkx8dYF0CARzJCEiBAgipFBui4sj7R3xOmSJwWo8URqfFU0Q+ZMpXTkeghOypGABTEgBI5LLVTgHEKEzViI1J8jqgio2SUq8CH2qibHYIVEEeamlp6gBp7L0NqORHp1V+DKKkgDImTvWH6O1dl0vXp7IPpFq3SGNNigWmWr2u4w7CVBBAyTQmQvK9RJg6PBMYlMkaKWcLSIgb3NbrR6rk0JECOaMgga2helvqResCSrX+bfIQKSEyuUb/zo1CfOdII79ZewMoTAqoRqMZ76BhHauAajSjPGjixrCq5ByKUqJwpVHoQ7b01oaFCpPSuyRbmBIinwpoBHCEPtzSqBZ8rFFTXbVNQo1WCkajoc0qq6VsjKuk1gLWElHMDrXlcrUcj5JTjUJuPAoo0iTcAdrlADdyaQLrAIFtUbucH1OdBU4zKdouV7RTA4DOAnHMw1w9Afukt9k+z7g7E9MV+5L2drSFbxPhouCjqVW5ZjI3KwKUspivhjgHx1ztafmqkaIepIO8GaR1PgmATOxbeV90XjQYa+s3idDRV0AeQndxIWoHjuTFkklTWeEwYPmtTQvdT6LVtPI3Az2wJYbqJwGX2c5Lai9g/dBStDwPoEW/WnT7fuG6aa+cGXvDXGFAQJ0lkQ4yBdp7Yx9JQPyvlKnSQ4xwNp4qJBR/12rPYsRA/dy18XdB6Yg6W5twFrcGD+Lz6H37vr0+/L/cv+32+8u3geX/9mOAvrp8SODnvw==);lineShape=1;" parent="1" vertex="1">
                    <mxGeometry x="303.12599979600213" y="918.4985299138914" width="57.727948506320445" height="14.108153297266199" as="geometry"/>
                </mxCell>
                <mxCell id="24" value="" style="shape=stencil(lVZdU+MwDPw1edXYlj+fOfgfzFCuGUrLlMId/x7lgkMlmu3cW+JoY0mrXXvgm9ft/ctmCO71dDw8bf6MD6ftwL+GEMb9dnMcT/I08O3AN4+H4+b38fC2f5jfX+6nyOnp+fA+/eHvjPOVcplQwX18rVDz/xbu5vjduD+L50zNxEfivA7IjrxTAA4UwzqgeooakJhiXAe00jPugJKoNgBolFkBqqPsIKBFDUhUEKBS1Sk12QHVkHsTF0CEPLRAVackezrAQxWigwY0KggQyScLqKCG0nrXz1IKgIeS++cFkCiAlApTMTV4chUAZNR0W2smjwF2NK7sEClogFTFgLhSyGkByZ5cAA+Oqgbk1jV7GSBN1F3KlSLgoTbrAQJoYIfGfXKWGqRLWKJOz5L0LWHFBaNpnJJ3jpy2jcrUsAuwEXW7VgQbUTMltIMoyAAKeTDfYhJfs3YmOTgbqbvK4sbffVhz12CMRhqLBlyqNiLNFNGAx+7WCyBQAkVMgPQDAFLKTEG3aXKStA6IIlI94ElOCEBEiFYRLBJCKVmvlJUIav4hINkRNdVbD5CVAip2fTCXuRD7h/FGPD5B65ZDXbueXzJciW+asQoZDr3ZC1/98LrMb5+vhS0os2Jl6bsTXFYlNc2Vg4eUD9SSiUeKlE6b64uQh/7/nze26/Hy8H09fBx3u/l2ef7dXidlab6K8u0n);lineShape=1;" parent="1" vertex="1">
                    <mxGeometry x="307.229353897667" y="878.4576937652323" width="17.04123544431559" height="14.930666010530103" as="geometry"/>
                </mxCell>
                <mxCell id="25" value="" style="shape=stencil(lVfLctswDPwaXTEkAb7OafofmYlTa+raGcdtk78vVI1UA67Wk5ssY0VigV2QAz+87Z9ed0MKb5fz6fvu9/h82Q/8ZUhpPO535/GiTwM/Dvzwcjrvvp1PP4/P8+/Xpylyevpx+jV94X3GMeUwgVL4mF+IUI5/33yd4w/j8So+dgrZALhQbdsAZpJoAEk/AVaQREUsIFEFgJyoswHESiFsA0padrwCAmXeBtRIxQIysYD4TuIWIK7b8S1TKSY+wAR6p24pUtLiHYBdIEfKYEcKyBZQAhW0QqPaLaBRApz2SjUZQOWF5f8DCondUi3EBQAyxRsApJU9rVV7EeVw03mlUEkQkCwgN8oo6ehXkE6c4Qpen1p7vKVse5UjJUSrCrpafQol1EtCxTqAmkhFdcjUrSnFRgHlUCl2v4LgbmXbGmqEyGNUD8kmzWHR+Bagia8DyiGGVfNrqRsJylpZtEvkei+JYEtdVqa3aIp2SyqIiLqvULOFqJkaLnV2gFXmW83EzjaEAuo+9pJTY2qocmlhfQVEEuQCqlGbg06kjJL+LKDdsJRVcqDSOoCalZz6fQe0TnV1xqS8AZYKE7uRqLUHddDviRsQDF1AdAPOjQN0MpblXHHVSwV0q5pEsaJuKiBQaaHozw14UPPipAtg0ixgNXlbUmfrgNTop/TktaDMYen8NV73Dw4ywRe5CfTV4A2mtmUcbcU7f4lwpAeKtiWKLKeIjXh3up3GLTJhPzy1ayOMr5Z/tewGGih5HQs24M+ezu/H68O/q8DLeDjMN4nr//3VQV/N1w5+/AM=);lineShape=1;" parent="1" vertex="1">
                    <mxGeometry x="299.926123317392" y="879.4317910930322" width="46.32039727607571" height="6.390253401235441" as="geometry"/>
                </mxCell>
                <mxCell id="26" value="" style="shape=stencil(rVfZbtswEPwavS6Wx/J4TtP/CBCnNurGgeNef99VVTpa0pogQN9kmSPu7DEcTuHudf/wsps8v17Op6+7n4fHy34KnybvD8/73flw0acp3E/h7ul03n05n74/Py6/Xx7mlfPTt9OP+Qu/Fpwnl2aQ59/Li5iI+e+bz8v64+F5td45SmIBkapsAzxT6HZwVAMAaADeAEIhV7YBwZM4CxDKDgAqieUQAhXAQXOSuh00DSAk8VSyAfhKjACFYgcQCn4bkAJltgBPDEin0iJuAFdbom8CcqBgs+QSOQTIlKMF6CdALxVNouXgtFlAloruUG0vkYCIqqfYUSBOYH2iYr/PcBhqptLllGoG6wtlW+Xcqnh7fe27QkuQMKAjMO8Ahs3xleG1tSscT90iW86ipFERKnlLImlZIsyS2JAyU8RlECsxWTUJ17kHCCUUkpDYvGZPAVU6Uradl6Sx2gI4OzwibZxuA1SyrEyqEDsgACNARaygHYaQdBw82mEgrfMcUS9pTmwvBRK0PvXCrQGh9UNjcBvYrc6LtsxCERHW1rbfnxUPpXQYHo9PnlvzKVTwfHYSEAsxBnQiIxWet7OKWRJ6trh3ZLKbHmX9IR3W+fy/gMEzKMABQCm9K1EOESiAHm45DQCQ1jwcJgoQ0H1vAawAqW4DtEyFhzqAkNRk/Gu1lbAiBVAbk3wPyCCtapRqxyE11dmyYp3J0Lwh0nqcdb5HKxPAyKmdTLZwRdoJtmVYnW2+UqDWqwqJzVLlJiRbprsTVlXOhEIadImxk3HNJVw3qPB8c+Q7Bpk8+D73kqGnUQKixE13VylFOsnkbIJKgOPMzSuv2g5NwqDCaklQfrg55atERujOuffagu883Lt/CTD/jpytb6zQabtWndW1EF7aPniNfH+9PrzdWZ8Ox+Ny5V3/399x9dVyPw73fwA=);lineShape=1;" parent="1" vertex="1">
                    <mxGeometry x="281.35919912107704" y="930.4087800550399" width="72.32397754467263" height="5.9379167724964645" as="geometry"/>
                </mxCell>
                <mxCell id="27" value="" style="shape=stencil(7VnLUhwxDPyavapsy88zIf9BFUvYCgEKyOvv05MtD2OZaSq3HLgti7S2pFa3NHPQi+fbq8fjIbjnl6eHr8efp+uX24N+OoRwur89Pp1e8Omglwe9uHl4On55evh+f33++/FqsVw+fXv4sfzCr7NfkuoWp+B+n78IEtPfLz6fze9O9xvz0CTrYO/F5X37WETjYO8kxn37VCQlY+/dvn2uErKxd8S+VCnF2GcSb63iismP6r59i1LCYJ/FF2KP/I/58V6qJw6ojx8dilQWQRZtYwRRArlSaeJGB3VSK3HwPSWrA6pITsgqOhYtKo0hJVu12ETJlfDvNJ6QVBrHaRhxl7IUdgLqWkeHIpEEHaPUMUsJ2CKVRk5Csw5KshS95Ggd2JW0SZtPIEErfm+OgZ1QxCWbpUTqoEma2jrURh385OCYAzp0bCCgKxDKgEM2lY69MntXskFr78E9h2LqEGgDxSB5ZO1YpZHC4ffmjmuBtqjhJYAlEOIuaolPUThS6ZokjlcCWJTUAVSp3sbgyQmt2ROS64l+08G7VTw22GDygCOCoXsnjfF9ljbmNWfJ5E5NrSCWQOm7rsy4OhQquTX2C3SHGqiGVkiycUiUXCEQZYyhrQB+G65e0tjUSDTDN+BvOggOidO3YbKGnyDCHicWaGAyEgPAWcZKo/aOnQCHEXwYJiLTrGhFDmmlWcq9hVcH37t2L632BNdVbK9woVoHRn2gUu+sAxtAF1meYmAyCoUyitI4vNHBcexp9CCb+bK3MyIKx8YZnGCGbkAjsn5onYU24KN1KB3MG3gzXlo00JzQaD9AUeIY9IY992ayXKYjmMqVTu8bB7psJDuTIU2NUF9ch8JNIRLv0TxqEEpNWy5OV1KKb8RgpB1w9WxMnEsNPLJZwPUpcttyzEH7CrNtagYmnQr3jkPtN14VJdO0QjSNUFdPyRXjiRl1l4GFpBWiqWPQma8cWJuacYj0BKisSSu4zTOhRogjMaGUNOhpmAa62DCdS6ehzVypfF03hQMvZNZxH3tWP+Fjz/rv96xl5xmv9PpgYY+9TdCLJrFxJlgFWsBC0IrZwaBVle5Z6GlD96FQQSnT4BocnRKXZ2ojL3le6QJyNzsNf15ULVNmeiFg3yyvuS9Re2OuWnsmiIopV839M0tQX0VWOZRCKpaskDTOkJazG03mBLhGH1B6CwasBKTFXH94+ZoZBk5n12fwGFGPaT3PtLncJLB0c3Z2kIqdhXcyk8e7K13kg1Rrzugz2lUt9Ol5BzP/9Bj/XXN8eH1jcHO6uzu/cNj+375hwFfntxN6+Qc=);lineShape=1;" parent="1" vertex="1">
                    <mxGeometry x="666.3691931235016" y="591.1546630111268" width="29.935177076554282" height="54.23563014867841" as="geometry"/>
                </mxCell>
                <mxCell id="28" value="" style="shape=stencil(7VjLbhsxDPwaXwlJpF7nNP2PAHFqo2kcOEkff19uDa1X1O4EufWQm2NzIlGcGVLa8c3L4e55vwvu5fV8+r7/dbx/Pez4yy6E49Nhfz6+6qcd3+745uF03n87n96e7i9/P99NkdOnH6ef03/4fcF5oSgTKrg/l28cOffvi6+X+Mfj0yKeHWVn4mvdjpdIoY9nKn47PurPfXyiINvxKRDHLr5SiNvxWfdfu3jP5EECOZPLPaCSgBNSQC0dIOg3GQAClX4FVgDIIWnN+pxFAWBLUQHcAaICEqgaU+5zSApgQAvNIXQAPYYEACG0MjVASZQBMbRMZoUqxAUAPLm+0rVggBsAtdV+FVCoRBsfEZVIhviKtGCJ5B0Wp5bZ2wUKKLMyX4YEUA2oij1RRFRnE9D4AEjhiE2JM6zYfBpzfCIB+Wp8L4MaYb6OZKBcAufvh/NUHQECKUWjYZxuMQBApdyvUCK0U3XD2qdcHExBvK1BFuwtbLeUKnlQhJTI9ysklTaw+JyaV83uVZs9rQLqUIeYWhdaBzDJAHBohUipWoCAHJTIyayQYV+brKfXTlT3AuYySb186JSqVXPyFEDharWWrc03AXrXuSstK40AqbF/BghlYBh1HiZmQITkU2pENwCA4kolZrslJKCSKQ70TqAO2vdCsccqIGmVfDZb8rAtKKD2W1JqRJR0aoJckM+jTjh31gW9UetUn5O+DiogRnqYqbaUKFpBBtfQg8ZsNd1BAWjm0WZmtzSPflsCsq6h7EL9xA0dLun8ijUa+6yVTAE0CE1CBrpG5JXJJqGCEJS1TiX9Mank3qncxwCFmyIX0yqDU8rq930Oei1AbVQFFnt+5whnetFS93UonhIYlbjYvqtGIqizZ2t9k0TQ7PA5D3/Ow//3PCztyrgYhz1oCn6Y24pqAImGBx1zM8x1RnC7lC7sERmw3pzNkHQdkNdJ7Ztq58s8tyeKdUCxkyELBGgHsA8SDK/aUexI7zPkkXhLPB/Io9t/tUnPfrlVaDO26R0DCE29zrwiFdjK1eqCuSaRYKcz/QPyOttxKsErVR6uL220X6+vtd136GDZwK2hb2zGeGhoN5mNk5H+IH17L1zv9XaEcrhOvk3313hGF+zhWUotD/Hmg6+h78frh+vT68Px8fHycrv83T7V6leXZ16+/Qs=);lineShape=1;" parent="1" vertex="1">
                    <mxGeometry x="688.1667346656709" y="678.6283882697355" width="27.213738870135558" height="42.60966622463229" as="geometry"/>
                </mxCell>
                <mxCell id="29" value="" style="shape=stencil(lVbLbhsxDPyavRISqQd5TtP/CBCnNurageO0zd9H24WcFR1Pkdt6zVk+ZjjSJHcv24fnzcTh5Xw6/tz82T2et5N8m5h3h+3mtDu3p0nuJ7l7Op42P07H18Pj8vv5YY6cn34df89f+LvgxIjzjOLwtrzJlPnfi+9L/H53WMXnTFqGeC4U021AMbIwAJIQgwxVyepYkVDV2wCtVHkAlARLqomyDAAzUtSDEo9Nm1ItACAUx5KskBoYq1FxGRKlCACtJNdDpBJghjDyoK0H1HQkHXnQxrQAQKE8SkkThQx4YMppBDBV0HS1rpwVgAEPmr345gyg6TZEJ+/WQwRjbbwm81NiBDCSKx4U7EMMwTM3Uw0WookzxysxAfVZvspQyABzar3k1UIoYE6lu8p65QBztfQF64DVHD5HBO9kZtBomkuUUeBWKYMxldA37ALIxGirlZLLwH1HbgGyE4dBqueSruSHmGtNO+b0MoZbY01uSYUCAhTv323nBGvD+XcDJGT4XwXkphx3QhgsKTHZuEEZm6WUPpPLKackQN8c+4nTARLhKReJxwQxQtsI3Xov0iMF23PlMRU6cewnwcetAYlISHRsFrpF8XvG/bC74ZBURnojBRSfu0P3+NCH+zlXwZOLnYhTX8HV90E9jZpcXLwB7YhQETcfdDA3cZq48SNT+eqd8P/x7eHjAvq02++X++v6f39hba+Wy67cvwM=);lineShape=1;" parent="1" vertex="1">
                    <mxGeometry x="721.2315744585969" y="748.0073236867702" width="9.880157930267615" height="23.22282129466089" as="geometry"/>
                </mxCell>
                <mxCell id="30" value="" style="shape=stencil(lVbZctswDPwavWJIggSJ5zT9j8zEqTV17YzjXn9fqBrFJiRvJm86sCSOxQIDP7ztn153Qwpvl/Pp++73+HzZD/xlSGk87nfn8WJPAz8O/PByOu++nU8/j8/z++vTZDk9/Tj9mk74M+OiUskTKoW/85dEOf3/8HW2P4zHG/vMxNLbF8r1PkACldQB7AhpAKCkpQOUTBzvA6oBtANIocr3Aa1R7W+oQgm4pHZe7ACtUFAAUAr9DdooFgCoxA5gR2QAyD5oAwiogyZK7AEKYmi64ZKCGJqQiAcUAYBMmX2WGgIk0tADKimq9DpooYZiMPa3HmC1Ry4Zmfv+scpUdEOh4grHOAZjTvCAHEClA2n2gIQATHXlEoOgLYlOBAyACmd15eazJIjeukprIQFZiiFQcGkSqAJ2hWdfpQZ0ZuKaS1OD3DCX26rlMpINptg8QIEaW6m5D/omD9tsql6O7YoKrjC+evopRQQw7iSfpoS72gtNpYRusK52hZCPXIqOr6bfQCw/DbAZlPosmRqijqirOVrbUvztsZip9DNI6tK2m4DCC3Xe56gs4nZvtDvdyLKMsU2ATX51u4DFAFwKfowWYpBUY3J/vM0LkNKVAPBC9TvmrhESCej+uPx97zTY+6tOjjCV1mS1Mw9QKKqXrkARqelCxas50oiYvKoEuO1E0/LkvUfny7KpXO0Vpd6mR3bJFHT+J3faj+3t4bpAv4yHw7x/3/73C7d9mpd1fvwH);lineShape=1;" parent="1" vertex="1">
                    <mxGeometry x="756.9357669042872" y="853.1613251051558" width="16.925986337030736" height="44.21605357172507" as="geometry"/>
                </mxCell>
                <mxCell id="31" value="" style="shape=stencil(rZZLctswDIZPoy2GBEASXKfpPTITp9bUtTOO0za3D1wNVRGS0E13tIyPxOMHyIEe3o5Pr4cBw9vtevl++DU+344DfRkQx/PxcB1vuhrocaCHl8v18O16eT8/T79fn+6W99WPy8/7Dr8nLjFguFMYPqYvAsx/Pnyd7E/jeWGfI4TeHjNw2AcKtv0awBki7QPCQNQBmYBkH6gVpAekAKELpNQBNUBNDqAeG0CddACpUKUHCkQnBomQSw9UN0ua1hg7IIbQSrNdOQSs9ojiAIkATdQCWPYBTlCxBxKIIyZWMZk0IeS6D1AFNKXWNDml5gAp90CC5OSVuSlhBjRvTuVStEEXTavjUg5Q+oYo0mq5XWqNoS91KZCdEyQ0rS1OIOcEESgmaN3CkYbWldBmSTxAC9fHIP4UWKh5UeriNemclFlMKuDsAAjUn6B97s0NnUz2BIHkyLVomlZd7TVEVnGiBaqTppTtGFCXxOtRWQHZTSvjKgZyS609ymbOhDbR/w+ABbiPIfuDKRaQXt8ptMmzLQ3bQDj7uGkfmtDmYazz3JHeStvzXNv233ZbBnF2Z3tbcbtctmVtd0coTqyRmubnYIEcTccKuXdHq+vsj6vL1r/XSN2Nxh49e4GajX31OoZtT6I7VrjaS40hOMM3rRosu1fa5ovNaeB/v/B08fd5+DKeTtPrcvm/fU7qp+kpSo+f);lineShape=1;" parent="1" vertex="1">
                    <mxGeometry x="261.3376649112399" y="925.6203648798062" width="7.981189549676628" height="21.676934152603508" as="geometry"/>
                </mxCell>
                <mxCell id="32" value="" style="shape=stencil(7VhJbhtBDHyNrkTvy9lx/mHAcizEsQzZ2X6fmgg9FjkzZSQIcvJNGrGmuRSLVO/i1fP9zdN+F9zzy+n4ef/9cPtyv4sfdiEcHu/3p8MLPu3i9S5e3R1P+0+n49fH2/P3p5vJcvr05fhtesOPMy5KrRMouJ/nB0ly/v3g49n84fB4Ye69NKfsg4RI7KuUqOyd9LZtD3+iN/bBEfu+tHfEPmaJ1p9E4k1wtyt7LzVt22cnXuezSiT+5DzSMb+/iusE0GwAoUllJzTpumIRT0jIAOSiABkxM5eK+KwAJYhjJ4QR4pwkT1mRilRd5RaksbJ5cboMPYw0rPOiiUsagMJVAijStEu9SQuUeUkXrnepDBCl6xi8e4PcQbK3R5RCAF58skEwMqHd+iJNtD+bDaJnKhgARE3XqXKeAOriBCeRSUy1Ld2qVAaAS7ohGmIgaUWWnAGE4eR6HZxlX/PjyRZdi650hfCQOqQkUZ9QIm059LzXdcjIEikcZCNoJXtt81VAyZatqQ4hWQXUYKmRogSSpVrtsIKcF8Il1NVwKc6vWAX0JKVbAIuhl8HNC0AhaUV/WfkGuxgAP+sTIIaBBA2AUTKklQ2ICxmaEYUiJhnS7EudNvUkQ7oQeda2rTQlA0iSCL8hQ83QNVNuoNRmsgPAxiJ0KwcLYPLdly03b0PrAGd1ButHJyOl9UXLtfGKTYCpdObsWyhZCuLJCQjaxAB+sw0LaTWVfp3dm4XTdUDL0YYANaIFRBYDyBesS4no/URvfQKEKfEeLcGmtRPyrfVoHrN7UwbMEXxPBMBrMk17IuN3tcsD+E1VoNiVCR0UealrtoD2LwENc9QAymjz9RmEtU9PiNzp4C19MOFiUldShzKvwjMAhWOTGh6b/yiJbqJQlaJPwHrCBi+olg2gUvn+q/Vbs/V9/X5fv//b+h3sYolVMxI5npY8HXThdIW8m3sT7NeNnIANrOigE+c3lu1i5mgfbb4F8DoGlJINLayRFuBoDDHZpvZIK4lhuv0xPVpGoreul8zWNwHICT6Oul64VEnQ2ao3Ys6k4ZLtt+BoFeJYXS7sA4t46MPsfx8DaT1ge73k5/91q/aL0YCEsr+JbuFPolvGYo1BRRwpmLMXP97TDRd7l9E7KqjOql2l0x8LkW7KMhR/o1jmmiuLJ7n8w7vbN83x4fWa+O7w8HC+Zb783V4r49H5Sjpe/wI=);lineShape=1;" parent="1" vertex="1">
                    <mxGeometry x="264.1322965355363" y="873.7697628505969" width="46.997900641203955" height="26.592160657405884" as="geometry"/>
                </mxCell>
                <mxCell id="33" value="" style="shape=stencil(lVjLbhsxDPyavRKiqOc5Tf8jQJzaqBsHjvv6+1I1pFrc7KS52bucFckZUpQWuXvdP7zsFu9eL+fT193Pw+Nlv8inxfvD8353Plz01yL3i9w9nc67L+fT9+fH6/+Xh2bZfn07/Whf+HXFRcqpgbz7fX3ATJX/Pvl8tT8enm/s2VOOMyBSKABQKZcZUCnFbYC65MIE0Cc1AEChKBNAAkUAEEcyA0Ik9gDA5Oego8YAAM3jOa1Ro3JgBU/iZ5cScQWA3EMcQVdiQFwQijwDmBi4FB3xTJz3VADTMVuASsMBppNQnQGFEvAoO6uMQA6wkCOJcYg8CKAIyUyzg6SVQiXa7wPdVeml1e0TeQH2KuxZFFx6xt6uNTccHiR7cgBRK0mehaq0ZwDIlGZlK4sRrRB7jB2QM1Wg7OptS6oMO4y+znUGqO7QClr/Mw8aVQEAJTrMWdK8oaBLohAtAAVdAoVqAS4BwDpLiSoSK69iEMpArcX116M6K17B9b4+ALEzs+WSn/WtTwpyyVu1ZmUGZUl61gcg4ZKOtkRzoAxqtKiYZQUABaRJLMG6hDafpv5gg0YbqBZQNDy80wSE3JxW1S9q3LpCnV3SkmLAgwJ4Jb6K2oyzrVVL1OG0sqnpCl1S4ngm7qZ7bmmDvV0igi237SfOBpFBXpv8TdQBNyZH1bjEcEtpNTqnqeUBpcnZSUajQnPGxwHBDojJU0AxpD4l3OxZCWmjWG1IhMOVrmAmSi9w0mi90gB0uAJMZ+l962YFBkGn0keXAcD9XpMoq1EAAXRCNZ0sKJUghlC7NgdA6wGsEEKX2iBOo0JD7tgDhzRw+9bJPpv2nckDaShNYjYID3f2dpyZAWmU1BbAMB1yP368DUiWaSndyY2pb3UUECpArbI6Lzm4gLeTg8fTD1t/dK5HJGivn5Wq0o6gJ7n+tWEfekQb9mYo9qM2/tNenwCKV/5w7i1tw95ISM9JaFtY5ZP13APiXfHVDu3AXlbHDHwHECgFa5/A9z96x/C+vf74d6HxdDger/cht+/tBYg+ul6eyP0f);lineShape=1;" parent="1" vertex="1">
                    <mxGeometry x="278.02381211303145" y="836.8668491748979" width="46.411467072844744" height="22.7973699000554" as="geometry"/>
                </mxCell>
                <mxCell id="34" value="" style="shape=stencil(fZbdcgIhDIWfZm8zQAg/17Z9j85U606tdqz9e/tmZ0c0uJ47xP0I5JwEBl59bp8/1kNwn6fj4W39M76ctgM/DCGM++36OJ50NPDjwKvN4bh+PR6+9i/z74/n6ctp9H74nlb4nbmSKZeJCu5vngmZ6jzzNAO7cX8FVKEsBuBKrgKg9oAE8gkCbLeUhEoEQKSUDZDLeWYRKIl8MEDRmHwfyBrBG6Amyu4+kDxxMoB3jhwgYu7TVAsVkFcWCs4CTBEoF4RctKeOxHIf8IXYpikHikAIf+MNUW94AGSSaoAoFIE3AlOyeWU+p2E5S9yfQZcQILVuQOwZdJNoS9Ls3wA5u2XZTIHECqeJ9kDpSaauRiNVcAY1QhdBzeLBli5WazpkSsBLV25uRaqWRyFawTQzRRIQYirJzq5atkBqLfouwqUxLBepthWb10vrWZY6UOAeyKCCtDV625mm9gmUC4Wc3VLJMMIE1BsA2FW9JraVlQB7n3c9oMKhCLEvIM1zBPZ25/umNQ1tVEC2G+fFCC8g398O2hNQuQlVu752DBfA+q0ptnqO5JFmeuIuo9DY7KjY71UxdJV4EntifPWorW++R/dC4t7V3DlIB5cHx2bc7eb3yvX//QNFp+bHDT/+Aw==);lineShape=1;" parent="1" vertex="1">
                    <mxGeometry x="647.4898327907181" y="631.9243160595936" width="4.672539772115215" height="4.665236216357243" as="geometry"/>
                </mxCell>
                <mxCell id="35" value="" style="shape=stencil(lZbdbtswDIWfxrcERf1QvO669yjQZDGWJUWabe3bV67hpGLqU/ROcT5KJHVIaoh3z7uHp80g/Hw+HX9v/o+P590Qfwwi42G3OY3nthri/RDvtsfT5tfp+PfwOP9+epjIafXn+G/a4WW2Y8o2GQm/zh8sk4X3Lz9nfj8ePvCBSUJnUBNZWjeQTKU/oRhpXjeIhUp/QjYK4IRUqZTOIClFcEIJJKkziJm4rBtoIZPOIBgZMKi2JHExUKq2zlulkDu+pRns3/gcHc8gRY13ATReAG8Ug/eHIV+8P1khX7VPKDHKT8unOV6xP1Y7Xiii/DR/suMNKGiKl3sFUcK8qOMr8r9SrY5Hemt8uuHR/Ta9BccXdF9Nvp4XlE/1NSxLF1jjnZ4FFuTE9/EGSiheJe1bBFPF9cLJ8bHi/LPjoZ4rqXke6zlUxwdcvzf9IUWsf++/fVFfxecfxBv4Et/1ggN2yLyAFAnC/JSJFHEA0ReMgrH3bT74hh4CnEla/VydWgqIoAjl/oTYhgLQRLrpiZmXrvf5INalB14mN67iNuS473LabgG0lZYTVwa1Qh0JSS/rSehId2Q3PAo5+LZ+HTwrvLgyYFzI/JlDoLGwn6vXSbvCR/W8wP2D49vkgftz9nzEvEuoLle+xifPo0HDvsyskOL8JM/j/Hzvefw13xbXt/h23O/np/zH//3bvX2a3/3x/g0=);lineShape=1;" parent="1" vertex="1">
                    <mxGeometry x="648.1806704567678" y="571.7952041537599" width="102.37031937698657" height="63.687417965328905" as="geometry"/>
                </mxCell>
                <mxCell id="36" value="" style="shape=stencil(lVZJchsxDHzNXFEkQZDE2XH+4SrLkSqK5JKV7feBMqEyoDTt8m0WNLE00ODED2/bp9fNlMLb+XT8uvm5ez5vJ/40pbQ7bDen3dmeJn6c+OHleNp8OR2/H57n99eni+Xl6dvxx+WEXzOOKdQLKIXf84cWqaS/Xz7P9vvdYWEfhTQ7QFFKZR3AgXJzAMnU6jogJ5LiAJn7l7sAScTJAVgo5nVAiZR9DkmoAA+lUfUhxULC64AWqAYfEgUB9kzqaQjUFNhXKm2wD2HdXi3jMtj/Y+W+fSb18SdKyN7i8RUVSigepRx925GC+sRwze/KAFMEfWoeeKCsUgIltRTEU5AihQhrVNUDuFdtjQTmj7SdsSziAYUCagumJqOHiDwEKgPPiRQAauvnXcuqVAEPtVD1ZTUFqSAHA4gva4xw/GvtgtUBVjZAQ9Uxogx5boma71UbJqBfrVD28QSoRhoo3diD85Vv4xF0fqHGQ75wctqo8FZgoHU2aYO9EVbR4Gj/vWgJRR5aF59F0zUgFypjid7R3w8DrCkGAWOrEmCt8qioufTpvr9zbHK9B8F9ar/V82x7TgDRtmiLn7SKASbS0ctLy331rl0WhlFTLMIm6uqTNu4rWgzxxoNCHpRk6L2AV6cFnEcHSPCkK/QigwbGk/uiXJQoA5pjT+9qL5C0MMqp6Qda5VYNr0amTw2ePyzmZtMKCAj94nS1t9kD9Y/jWrYlh+Tuoxfa9+3t4f/t+WW338+X7+X/8bZtn+abOj/+AQ==);lineShape=1;" parent="1" vertex="1">
                    <mxGeometry x="296.75534125074626" y="831.4847460031992" width="23.049664643413735" height="20.72218179874494" as="geometry"/>
                </mxCell>
                <mxCell id="37" value="" style="shape=stencil(lVfLbhsxDPyavRKiqOc5Tf8jQJzaqGsHjtPH35fbxW5MppogN2fDkUTNDElNcveyf3jeTTG8XC/n77tfh8frfpIvU4yH0353OVz11yT3k9w9nS+7b5fz6+lx+fv5YY6cf/04/5xX+L3gmEqeQTH8WT60Sjn8+/J1iT8eTrfxTCkZQO1UEaBSrxaQKMcxICZqbAClU65jgDB1B9AdCgB0SjbprF94DEiVxCadhWIbA3KmWAwgFUrgSCVS6gagh6wCAJ3Y5iAR8lAzieUhZghogXozAG7UOgDU9RI3ABODpHuhYgEB0tB1g+jiA8igN4ri4gWt36hb1pgEKLWrLu36kTqOb5bkRD0B64Qtv807xEB28wZWp50EMKbxzszKmIAT6Q01mzHHdcsRIFjVsVBFd1S9cxSAVKciSu92gDmo7JvPgdGR1MxuB9VRBgCl1fKsQkQnSr5E5nWB4YGsDwSTsBn9TacB+aCQWA4CVexLV4tUt8j31fssEINapyKq3scf+MydP5Kg9dU29n4S5qt7fstamIbxlq9GBTQ0jS/2PCo41AwUECwBKumEK6NraGoa1PY/DWjd+1hJaOCSmrYvC5BABSRdi3eNFFgpqq5naUiaA9B1ET+JZNygclnX2wAVdpzU1lHoZnRJoLSkQNmNXwy9LELBAcqqrv+PX9lfa2Oq4Eisk4irdngH1Wa1SXeGao1+EFG9V+BP1b5rUgEPCkyt+g2QktibYW6kQNuBmpW22qkA0oJvaVoxkVCDZ0ArOJoT9DbsBWkHQqPguzGkCzEoYHoea4O+PTMG8f4+w1o9BvHFKW4rgAO+2ObbGuz4n34UfRivP95eYE+H43F5wN3+37/Y9NPy2pP7vw==);lineShape=1;" parent="1" vertex="1">
                    <mxGeometry x="675.9133326265444" y="682.35134979447" width="64.2468136836485" height="23.324767613159565" as="geometry"/>
                </mxCell>
                <mxCell id="38" value="" style="shape=stencil(lVfZbttADPwavRLce/c5Tf8jQJzaqGsHjtPj78utsLJJy2P0TQeHWpJDDjWFp4/ty/tm8vxxPh2/b37tXs/bKXyZvN8dtpvT7ixXU3iewtPb8bT5djp+Hl7n+/eXbtmvfhx/dg+/Z5yjEjrI85/5Qa3k2r8nX2f7/e5wbV8oOAUogUq5Dwie2CtAZkruPiA6ilUBkrgAgP5axxA9BRBD9pSLAsghI4ihyGsdgw8UAKDy8DcALlFNACBpzQrQyNf79i1RS8qeYQQtU83GnhnYF6ps7B3yX21KmVoG9m3kb8koeVAysa+mxoNW6zTlJb6FRY8OVPWBCrUA7aMuQKOCElqpaFY7R4wiXr5/BYARFBuxk5yCHAknuNgv1AhJ53XMjget1gGRcjBJCojVkXw2RUjYvzOjghL2H/XwCpSxf1MDj7smDXeXLijIf6Zku/gBJ2Kz9qhgdczBi33GpHb6/CIPuCsLm3xGMKnFvtl6BZTPZqdcwVOxUdZzWgJC+WlWm4TQGX2gkr9pyoIr8H+AKnMlakAbergOEG3SNetJBaQr0gSmaIserstlHDlZZq/MCUCLJLNZl+2BgsdASQedZdYBYgRpfEMMHovMuh4IM3TQNUKq3nygD3yQ1WAFv3MX+PdjabowDyuyt8O6Nx+K2K4svbmBGrBdEDp1QQB847+MNeyOvTNSkCDrbvS7iwM8D2sKNUkxjNdoWXNwA+Gb0cKQ025k+2qxRvK9uoiDvn+8uMvFZet/2+3380/D9Xv7lyCP5j+M8PwX);lineShape=1;" parent="1" vertex="1">
                    <mxGeometry x="702.9096764830063" y="746.2564446857548" width="53.53334089677128" height="25.47728534383532" as="geometry"/>
                </mxCell>
                <mxCell id="39" value="" style="shape=stencil(lVbRbtswDPwavxKUaEnUc9f9R4GmS7AsKdJsa/9+9Ay5oRwf0DfH4VnS8U7HQR7e9k+vuyHy2/Vy/rn7e3i+7gf5NsR4OO13l8PVngZ5HOTh5XzZ/bicf5+e59+vT1Pl9PTr/Gf6wvuMSxTLBIr8Mb/IgaL8f/N9rj8eTjf1MRCrAySmkrcBkqhEBxiZIm8DRttScACJNKZtQEqU/RniSGncBuREyg4QCjHYUsmk1QGUKiCpBpLR1eMjV6GifX0B9ZnY78cYQvVK7HuQKVVQX0k8oyFSAAsE5kbgglDKoGm2hHqKTIqCAEZ5J4tACQEKSQfIlAMArIRnSmUEiKQdwBqvAMAktV8BNUKVgheGFCpgS5ppFA8QYuAFNdZ942Jp4roPGJv0FwDTCC4AXfq6SENIQePsDMmrtVBFC+iq0TQit3G7HT7dBqUaqZauHt0WdX1gSkhGpe9ZIka3S115jSlgO6tXUTCZAFEYoHqAURowoFdRpYScUFZuTlB2Rmr1pErFAKHsWTVzBiCjLwOUW1sXQIE3Uq69UC26IqA11cb6TTqjsB2Viu9D1mam++lcWzAtXrPsBDe9RWv2ZzC7RtQHYt+3urBwP2v76LzJlvsk9RuyBVD6S+/mSYvoxP1tNPkb9GCV/TYNKLCCqch3QEubmDbq2X9fzZvgulglc9GW7hv1XfYXgfsJK41WmAeRYvb1No4hiVLu6qVNMxt6uDPRfrXe8WkPn+Pzy+F4nKfv2//7cdtezaO6PP4D);lineShape=1;" parent="1" vertex="1">
                    <mxGeometry x="256.6450998052545" y="930.025872828066" width="27.99914947745083" height="10.203098472775537" as="geometry"/>
                </mxCell>
                <mxCell id="40" value="" style="shape=stencil(lVrLchw3DPyavbJIgM+z4/yHqyxHW1Eklyzn8ffBZIucYXOnpdxWWmAIAg2ggdmLfvrx+OX7w0X8j7fXl98f/rp+fXu86C8Xkevz48Pr9c0+XfTzRT99e3l9+O315efz19vf379sktunP17+3J7w901PXPSbkvh/bv9ILub//vHrTfzp+jyJl1k8eBfruby6Wmb55oKey0dX0iRv9tR2Lp/QHlUXiXxG+RhcJvLFFZnd4536c/mKz0/VtXIu31yKk3wuTsK5vLnb66RQogvkAFOQOis0V8kNtoDmSaFGpwQSppDnO9fqhPjUFMoMimZBICAKwfnZSy06YXcQF0AhO2UnlEUhuUzcKsE1RZNqJAplubTSEzS6BibZrRJJHXFtzp1moRSSO6F/fQhcYsnjuwFDIff8uK9Q8A41OU8UDMxpdmtVCo26miQukwJjYK5wQqD5YD4JGRUCUdi83mYFy0GSQAYEP0Oj2JnESwY1CFyxqk0uvYE5zAqWccyk7MJ8h1ypW00BikA2/JJCZgoFTvAuMbfm/vUorYl7KeEJsbrK3QrQsJTyJKe3DJ5P0NRDeV9BMHDWMFi5t8Lo5xOsAytJ0WrFfUarlTbW0A3eGRSUlspqhWzG0t4x7itkF+ciUFwidWxrN4AMJyyjxcmcPok+3/qfzBeIFBaWWyIg78l9i8d0NkpCQGGJAgXG6gEJQCrIMaTj9r780m6lk6z7fSSif6RX8fuNahSr3X7W/lUQcdoNPOucNYL/leSMPQ76IK9EYnVntsfwQ/BgCZXn52faD0JyKiCfGcULyIELpditE9LRbig8Y+fTu7iS6Mb16SwZFbFWqO+1M8vDVYnr1YUAnmStW5E2Zjp7aCfSHxuFtEflUEboJASEMfayeOJ3IBGxd+STOcijMYwrJkxBCzPxTMYKFXsPOBFPAo4UYkzGhsJHvkXcjmPlFY0pvZx/7KpWbQkIxpSwp0cgUU3Yziv1+wICPljpwrYpfVkAXDqH+1h6FErl7ySfEhBor6E7CBjv1/6wXZwVvaUsRYqZ2N28izMALyU1UhCMOvEx8erKIk4wY+1DZscrTacwuuOBrhBzrP2Bc5QuIKy9gj1GV3j7htokdP2woXZO8EDpnNEPgH2gwVXrYPN9PZ154wjPLs/oykbPKsh7RudGQTrIk7Q1egn02PcidEZfBe0REt+yzJbGp0jmbusn9D+rI1WRgQRKX20+yUi/K7HfJqaw0DnyfBvvIb6N3tfkcSITriA9nkMh0x7UFDNycxEb1iPOrTI47dns7WcfaeyLy/sKpWP+sGdN7A4VJ2Mb1tkY2trSAfgYZwpAwLKnJgXvMRA50eWvHQF+zY1uo03Bw15Gu6fP3CTAZhJtq9veE05oneF8EExVaHtqYdnADZp+tnEARmYKhTXAtGzgIt8IWGDnS9dER+oSERuVF4Fs4ATeV+jQmEdRHAqNltUU8M2JOZqtiqJiBlko6bgzdoaHFXYjaN3Z51DI9OXJ9nJpDlzji03jFjCKb2nOZmXF5nPI2pNpGRf9lcah9tXtwUlsRK24PLGwUXAjO6p8Hl/ssVyIrB3ifS3/G7G/IJct/O2PDewwjZV3XsDhsqXRmSZ1oj7kPV1ER3yh9s4OV7EYqdEF4k/B52/bSfb+rVs7ANr6K4678r53vcN2lQ1CS4/i7608NpxE0eZxXk2Umy5UP1Lse1wMR/oGwGN35UsL7xouLVjTGFPAQZxt9Rac0Xc8oc88B9tZ5cThOVLKKOuGmr6L7DHfo8o6/P/+icA74vZh/zXCt+vT0+3HDMfv8dcL9q/bLx/0878=);lineShape=1;" parent="1" vertex="1">
                    <mxGeometry x="476.68324344084067" y="923.4262411985299" width="117.60112489857784" height="103.49470634857403" as="geometry"/>
                </mxCell>
                <mxCell id="41" value="" style="shape=stencil(lVrbchs3DP0avWJIgNfnNP2PzMSpNXXtjOPe/r5gNdwswN1j+c2WgCUBHBxcVhf59OPxy/eHC4cfb68vvz/8ff369niRXy7M1+fHh9frm/51kc8X+fTt5fXht9eXP5+/3v7//mVIjr/+ePlrPOGfm55QjkOJw7+3D1Kk1v//5Neb/NP1eSefKBUrXyiFc/lKXI18ThTauXwM1NgoFKHAQEEodqvQ5iOOFTJVe6WaSdCVGon1UYtU8rkCB6piFSpJAQpMzSp0JgY2aBjYXqlnYgEKmWK2CgXGmQt1p1ApoBM6heBPYOAl4UVBLwmgJIXEKci06hirGqZkFcKE+7FCpWKxpIFD6FYwZ3tCE6rArUWzq1nwdSoAfArmbqGhaE1AQb8u1ks1TvweKgwwu4xTo0GkW5lfbwoJolW9Hq3R6oZcgYJM5Gys0YmB0YqcZI3O2AbFZrUJlDPMh1690VmooytVau5KEebDULAnKBwjcmudtLUpaEqBSKvRyTKfplREXsqeWzXLC/KSTDBvCkwdKUTq9kqxUH4HS9ZLMUIbmrK3xZIyG0oH5UVXESHJtAV6PNn/LN1cgePpguN8bpNQdvcBDtL8Dw7Z1NDzg0dRg3RR8jx+FwBJgCM7JXuhmKiCaqiJlW3EtAInRNttthSbSyNEXdK6YbsYdRIDJ0mj7BKhzUccKyTvVQkQFuNra7RgHGlnleyV9EzYAmitskAV7XtQCxB9Jgy6QI1Sn2Vgp4Bs0FyvNg6ilAcirchx7argzioyCXuFDCq69p+cvEIBCu3ggAKgtNHbTh75KPlyPuRREHydUvkG0jN4Ah7PB3ynHdQSMuTQI3+iEAcKLg/K7E/O5IOXRwNGmD3mLgsytFeSlw8ga4JvITUtK/B/9HQqW095Ip/bIg/8ybNr38kXNIt4tlb5DuW9ve+wykTjTr4D/Kzy2sUA/6z32SaZO+2tcBpc/VlhA7/Ga+vz7sTD1kjeiTfMVyueK2xL13wpcMI5ykcG+FnzPUM+XPkkz0/u5Kv0QT5Ms/bfybcJF5gPyq/8n6ZFZ/Vlyd936tfyfMQPo0AuB1RkMPthbiigDEizpN+rsNZUtQEptDkC7BTQnK9Rk4XV4TZEJmluCgIHUo1bc7hjyKPaMAZntEIXAFsvsPawiNlHI+C6ZLzr0/HTYWmsF0Ht1gHXNYy8oet4NNCe2CqM2AMv5ebpV+GIys1YZVgvdTh7lO4P2LZUx+NWWrIBYlvHv+imJ1gOdLxM9j4BlrOmwM9OPqDnL4uTAMfXMX67RIA7itZneH76E61/e/RzkxKU4N1SsReKGS4Exm7JWjx6BrTIKXMxtNuaMPBpVx+5moBrYO++iKcIm3ZV6DZvxm4JjkFLHc9xRv70TtbqnOHipC/IzhV2+mN9ZSOX+9xPHSskipZTS4C9oIIpOAWBe8dWPVuUDDm1sV/BFYyNuixbq8D5SZ/nEqLWCa9jBZ7z6rYAiphTsx95W4YLndQ8J2mWJ6TAPtKd4VA9Zkr3AgVvybW4uu1sx2O7pnB17xL6BMvZfsbtHVUBLeJ4cesuCc+aDLd61JyCd2LfTGpOoQzi6F99dYy+2P3GWAsAas/HCsi6SVMEzbPaHboTNEXQ3itG3/eMFEF0PBNyRwKoZci+A8hpsu3ZhOr2/HhCjVTcQpph9iwTp8rDtZ0HhRYTVBCj3/En/Dp0WXirfAL+2Xa3O3kEIfbxUnmEUfaMqvIBbxTqx+T7eh/0XtPXwWEvWhX7mjP8CeyV6e19vODzP/aTgPfl9Y+fvz/4dn16uv18Yf+9/72CfnT7rYN8/g8=);lineShape=1;" parent="1" vertex="1">
                    <mxGeometry x="663.884034239429" y="835.9294733435515" width="148.28651150416908" height="127.27148406623428" as="geometry"/>
                </mxCell>
            </root>
        </mxGraphModel>
    </diagram>
</mxfile>